name GIL02_xslow2Moments.mot
datacolumns 7
datarows 54
range 1.19999981 1.64166653
endheader

                time	          RHipMoment	          LHipMoment	         RKneeMoment	         LKneeMoment	        RAnkleMoment	        LAnkleMoment	
          1.19999981	        247.80245972	       -248.24679565	        -13.37800503	        104.60202789	         46.28931427	        511.70785522	
          1.20833325	        235.54283142	       -232.79751587	         -1.51816666	        115.37389374	         45.17703629	        467.33807373	
          1.21666646	        231.24211121	       -217.42832947	          5.18294334	        124.21410370	         45.67235184	        423.10229492	
          1.22499990	        230.06176758	       -197.43966675	         10.49820232	        129.71156311	         45.76711655	        379.41049194	
          1.23333311	        228.47877502	       -181.73211670	         15.44471073	        134.46003723	         46.51434326	        335.97900391	
          1.24166656	        224.02075195	       -172.56362915	         20.12402725	        138.93092346	         48.14870834	        292.91793823	
          1.24999976	        217.44685364	       -167.08210754	         23.43622589	        140.60047913	         51.43162537	        251.07591248	
          1.25833321	        207.29504395	       -164.31170654	         25.92543602	        139.77806091	         58.17675781	        209.58985901	
          1.26666653	        197.45881653	       -159.33056641	         29.57237244	        132.47900391	         68.16292572	        171.07850647	
          1.27499986	        190.33219910	       -158.02445984	         34.37370682	        123.45458984	         81.62266541	        134.50952148	
          1.28333318	        191.71633911	       -157.08961487	         40.43097687	        114.17595673	         96.74845123	        101.69723511	
          1.29166651	        199.10221863	       -143.03382874	         45.43173981	         99.57698059	        111.58424377	         74.53486633	
          1.29999983	        210.68478394	       -130.37727356	         49.83445740	         89.84736633	        124.44770813	         51.07345200	
          1.30833316	        219.46736145	       -146.05747986	         53.02834320	         96.70930481	        136.69471741	         24.59935951	
          1.31666648	        225.58676147	        -70.57141876	         55.28962326	         52.83596802	        147.81022644	         17.58550262	
          1.32499981	        222.82125854	        -82.98208618	         56.85571671	         55.53128815	        158.20654297	          2.15798736	
          1.33333325	        224.15304565	        -93.93624115	         57.57766724	         55.83858871	        168.61917114	         -9.24518681	
          1.34166646	        215.02140808	       -109.96188354	         60.48000717	         57.93137741	        178.33975220	        -19.08434486	
          1.34999990	        207.72148132	       -124.76393890	         62.94772339	         60.41099548	        189.66944885	        -28.07610893	
          1.35833311	        197.21418762	       -135.21081543	         65.20913696	         61.20600891	        202.06861877	        -35.13368225	
          1.36666656	        182.86665344	       -161.31796265	         69.60446930	         73.38209534	        214.20018005	        -43.85231400	
          1.37499976	        162.79257202	       -163.52934265	         77.17693329	         74.21852875	        225.54095459	        -48.46309280	
          1.38333321	        141.79083252	        -70.98025513	         86.31848145	         14.96611309	        236.74372864	        -37.88336182	
          1.39166653	        125.77944183	        -93.47000885	         96.97069550	         33.15570450	        247.39393616	        -36.44328690	
          1.39999986	        126.72200775	       -108.71716309	        105.48771667	         46.23303986	        258.35562134	        -32.78570557	
          1.40833318	        139.06571960	       -117.12055206	        113.53082275	         54.71274948	        269.48492432	        -27.44638824	
          1.41666651	        154.57479858	       -118.56850433	        118.70456696	         58.89206314	        281.96640015	        -21.20899963	
          1.42499983	        171.47584534	       -113.32069397	        122.49794006	         58.80893326	        293.23782349	        -15.16183186	
          1.43333316	        181.81452942	       -106.75758362	        123.63336182	         57.16474533	        304.08135986	        -10.49034595	
          1.44166648	        191.63783264	       -103.12434387	        121.64918518	         56.74868011	        314.71148682	         -7.86551952	
          1.44999981	        188.58303833	       -102.24903870	        118.78395844	         56.63644409	        324.59011841	         -7.30604410	
          1.45833313	        185.17449951	       -102.01762390	        113.41364288	         54.67610168	        334.98986816	         -8.40143013	
          1.46666646	        170.95549011	        -99.82612610	        109.10292816	         49.40143585	        344.85632324	        -10.43630600	
          1.47499979	        147.49093628	        -94.88705444	        107.35671234	         40.13012314	        356.08697510	        -12.64010525	
          1.48333323	        112.42454529	        -89.17465973	        107.80782318	         27.76178360	        367.07589722	        -14.23479080	
          1.49166656	         80.07337189	        -82.02838898	        109.84905243	         13.19524384	        376.48541260	        -14.59939575	
          1.49999988	         52.95277023	        -75.86469269	        109.80705261	         -1.46898818	        385.66540527	        -13.67215919	
          1.50833321	         38.41979599	        -75.76630402	        108.70684814	        -12.38113403	        393.06585693	        -11.96044350	
          1.51666653	         31.41040993	        -81.03794098	        104.97489166	        -18.56012154	        400.66146851	        -10.12082100	
          1.52499986	         41.73394394	        -85.73477936	        100.32936859	        -22.17963982	        405.66189575	         -8.64765739	
          1.53333318	         59.72096252	        -84.87615204	         94.30538940	        -25.09333229	        409.70333862	         -7.78341770	
          1.54166651	         81.92287445	        -77.56079865	         89.33013916	        -28.32981682	        412.38507080	         -7.64706039	
          1.54999983	         97.17751312	        -65.41902924	         86.10323334	        -32.20096207	        415.71057129	         -8.12047577	
          1.55833316	        112.29449463	        -46.81927109	         82.68788147	        -36.75105286	        418.59375000	         -8.79037285	
          1.56666648	        123.11475372	        -24.81690788	         79.73890686	        -41.52129745	        421.14736938	         -9.26986027	
          1.57499981	        131.04280090	         -9.69723606	         75.99177551	        -44.62199020	        424.10482788	         -9.44929886	
          1.58333313	        125.48648834	         -6.51384783	         74.02561188	        -44.99925613	        426.76770020	         -9.45166492	
          1.59166646	        114.24081421	        -11.94184208	         72.86654663	        -43.91701508	        430.88439941	         -9.42098522	
          1.59999979	         99.80342102	        -21.84267235	         72.76657867	        -42.83539581	        435.50894165	         -9.47554874	
          1.60833323	         83.41035461	        -33.69579697	         74.86568451	        -42.32622147	        439.54962158	         -9.73020935	
          1.61666656	         62.43801880	        -45.77191162	         78.47316742	        -42.32889557	        445.32806396	        -10.19494629	
          1.62499988	         36.99288177	        -51.22732162	         85.65735626	        -43.27531433	        450.15136719	        -10.73035526	
          1.63333321	         18.08688354	        -45.71217728	         92.00894928	        -45.63626099	        456.07745361	        -11.11610508	
          1.64166653	          6.34798145	        -33.66508865	         98.72246552	        -48.95932388	        458.16976929	        -11.14489365	
